<svg width="24" height="31" viewBox="0 0 24 31" fill="none" xmlns="http://www.w3.org/2000/svg">
<g clip-path="url(#clip0_688_231)">
<path d="M11.8057 30.262L11.3192 29.929C10.8525 29.6161 0 22.0671 0 12.4896C0 5.87917 5.29222 0.5 11.7859 0.5C18.2795 0.5 23.5717 5.87917 23.5717 12.4795C23.5717 21.4616 12.7391 29.5657 12.2823 29.9088L11.8057 30.262ZM11.7859 2.21568C6.21563 2.21568 1.68795 6.81775 1.68795 12.4795C1.68795 20.0588 9.69082 26.5784 11.7759 28.1427C13.8412 26.4875 21.8937 19.5743 21.8937 12.4795C21.8937 6.81775 17.366 2.21568 11.7958 2.21568H11.7859Z" fill="#15215C"/>
<path d="M11.7854 17.7995C8.59817 17.7995 6.0166 15.1654 6.0166 11.9359C6.0166 8.70635 8.6081 6.07227 11.7854 6.07227C14.9627 6.07227 17.5542 8.70635 17.5542 11.9359C17.5542 15.1654 14.9627 17.7995 11.7854 17.7995ZM11.7854 7.77786C9.53151 7.77786 7.69462 9.64492 7.69462 11.9359C7.69462 14.2268 9.53151 16.0939 11.7854 16.0939C14.0393 16.0939 15.8762 14.2268 15.8762 11.9359C15.8762 9.64492 14.0393 7.77786 11.7854 7.77786Z" fill="#15215C"/>
</g>
<defs>
<clipPath id="clip0_688_231">
<rect width="24" height="30" fill="white" transform="translate(0 0.5)"/>
</clipPath>
</defs>
</svg>
