<svg width="17" height="23" viewBox="0 0 17 23" fill="none" xmlns="http://www.w3.org/2000/svg">
<g clip-path="url(#clip0_688_217)">
<path d="M15.1815 9.98129H5.12631L10.9126 3.13519C11.3981 2.56238 11.3374 1.69971 10.7777 1.20282C10.218 0.705924 9.37497 0.768036 8.88941 1.34085L1.18787 10.4506C1.18787 10.4506 1.15415 10.4989 1.14067 10.5196C1.12043 10.5541 1.09346 10.5817 1.07323 10.6162C1.04625 10.6576 1.02602 10.699 1.00579 10.7404C0.992299 10.7749 0.972068 10.8094 0.95858 10.844C0.938348 10.8923 0.924861 10.9406 0.911373 10.9958C0.904629 11.0303 0.891141 11.0579 0.884397 11.0924C0.870909 11.1752 0.857422 11.258 0.857422 11.3408C0.857422 11.4237 0.864165 11.5065 0.884397 11.5893C0.884397 11.6238 0.897885 11.6514 0.911373 11.6859C0.924861 11.7342 0.938348 11.7894 0.95858 11.8377C0.972068 11.8722 0.985556 11.9068 1.00579 11.9413C1.02602 11.9827 1.04625 12.0241 1.07323 12.0655C1.09346 12.1 1.12043 12.1276 1.14067 12.1621C1.1609 12.1828 1.17439 12.2104 1.18787 12.2311L8.88941 21.3408C9.15242 21.6514 9.53008 21.817 9.901 21.817C10.2112 21.817 10.5214 21.7066 10.7777 21.4858C11.3374 20.9889 11.3981 20.1262 10.9126 19.5534L5.12631 12.7073H15.1815C15.9233 12.7073 16.5168 12.0931 16.5168 11.3408C16.5168 10.5886 15.9166 9.97439 15.1815 9.97439V9.98129Z" fill="#15215C"/>
</g>
<defs>
<clipPath id="clip0_688_217">
<rect width="17" height="22" fill="white" transform="translate(0 0.5)"/>
</clipPath>
</defs>
</svg>
